solid crosswind_limit_flag
  facet normal 0 0 -1
    outer loop
      vertex -17 0 0
      vertex 17 6 0
      vertex 17 0 0
    endloop
  endfacet
  facet normal 0 0 -1
    outer loop
      vertex -17 0 0
      vertex -17 6 0
      vertex 17 6 0
    endloop
  endfacet
  facet normal 0 0 1
    outer loop
      vertex -17 0 4
      vertex 17 0 4
      vertex 17 6 4
    endloop
  endfacet
  facet normal 0 0 1
    outer loop
      vertex -17 0 4
      vertex 17 6 4
      vertex -17 6 4
    endloop
  endfacet
  facet normal 0 -1 0
    outer loop
      vertex -17 0 0
      vertex 17 0 0
      vertex 17 0 4
    endloop
  endfacet
  facet normal 0 -1 0
    outer loop
      vertex -17 0 0
      vertex 17 0 4
      vertex -17 0 4
    endloop
  endfacet
  facet normal 1 0 0
    outer loop
      vertex 17 0 0
      vertex 17 6 0
      vertex 17 6 4
    endloop
  endfacet
  facet normal 1 0 0
    outer loop
      vertex 17 0 0
      vertex 17 6 4
      vertex 17 0 4
    endloop
  endfacet
  facet normal 0 1 0
    outer loop
      vertex 17 6 0
      vertex -17 6 0
      vertex -17 6 4
    endloop
  endfacet
  facet normal 0 1 0
    outer loop
      vertex 17 6 0
      vertex -17 6 4
      vertex 17 6 4
    endloop
  endfacet
  facet normal -1 0 0
    outer loop
      vertex -17 6 0
      vertex -17 0 0
      vertex -17 0 4
    endloop
  endfacet
  facet normal -1 0 0
    outer loop
      vertex -17 6 0
      vertex -17 0 4
      vertex -17 6 4
    endloop
  endfacet
  facet normal 0 0 -1
    outer loop
      vertex -17 27 0
      vertex 17 34 0
      vertex 17 27 0
    endloop
  endfacet
  facet normal 0 0 -1
    outer loop
      vertex -17 27 0
      vertex -17 34 0
      vertex 17 34 0
    endloop
  endfacet
  facet normal 0 0 1
    outer loop
      vertex -17 27 4
      vertex 17 27 4
      vertex 17 34 4
    endloop
  endfacet
  facet normal 0 0 1
    outer loop
      vertex -17 27 4
      vertex 17 34 4
      vertex -17 34 4
    endloop
  endfacet
  facet normal 0 -1 0
    outer loop
      vertex -17 27 0
      vertex 17 27 0
      vertex 17 27 4
    endloop
  endfacet
  facet normal 0 -1 0
    outer loop
      vertex -17 27 0
      vertex 17 27 4
      vertex -17 27 4
    endloop
  endfacet
  facet normal 1 0 0
    outer loop
      vertex 17 27 0
      vertex 17 34 0
      vertex 17 34 4
    endloop
  endfacet
  facet normal 1 0 0
    outer loop
      vertex 17 27 0
      vertex 17 34 4
      vertex 17 27 4
    endloop
  endfacet
  facet normal 0 1 0
    outer loop
      vertex 17 34 0
      vertex -17 34 0
      vertex -17 34 4
    endloop
  endfacet
  facet normal 0 1 0
    outer loop
      vertex 17 34 0
      vertex -17 34 4
      vertex 17 34 4
    endloop
  endfacet
  facet normal -1 0 0
    outer loop
      vertex -17 34 0
      vertex -17 27 0
      vertex -17 27 4
    endloop
  endfacet
  facet normal -1 0 0
    outer loop
      vertex -17 34 0
      vertex -17 27 4
      vertex -17 34 4
    endloop
  endfacet
  facet normal 0 0 -1
    outer loop
      vertex -17 6 0
      vertex -11.25 27 0
      vertex -11.25 6 0
    endloop
  endfacet
  facet normal 0 0 -1
    outer loop
      vertex -17 6 0
      vertex -17 27 0
      vertex -11.25 27 0
    endloop
  endfacet
  facet normal 0 0 1
    outer loop
      vertex -17 6 4
      vertex -11.25 6 4
      vertex -11.25 27 4
    endloop
  endfacet
  facet normal 0 0 1
    outer loop
      vertex -17 6 4
      vertex -11.25 27 4
      vertex -17 27 4
    endloop
  endfacet
  facet normal 0 -1 0
    outer loop
      vertex -17 6 0
      vertex -11.25 6 0
      vertex -11.25 6 4
    endloop
  endfacet
  facet normal 0 -1 0
    outer loop
      vertex -17 6 0
      vertex -11.25 6 4
      vertex -17 6 4
    endloop
  endfacet
  facet normal 1 0 0
    outer loop
      vertex -11.25 6 0
      vertex -11.25 27 0
      vertex -11.25 27 4
    endloop
  endfacet
  facet normal 1 0 0
    outer loop
      vertex -11.25 6 0
      vertex -11.25 27 4
      vertex -11.25 6 4
    endloop
  endfacet
  facet normal 0 1 0
    outer loop
      vertex -11.25 27 0
      vertex -17 27 0
      vertex -17 27 4
    endloop
  endfacet
  facet normal 0 1 -0
    outer loop
      vertex -11.25 27 0
      vertex -17 27 4
      vertex -11.25 27 4
    endloop
  endfacet
  facet normal -1 0 0
    outer loop
      vertex -17 27 0
      vertex -17 6 0
      vertex -17 6 4
    endloop
  endfacet
  facet normal -1 0 0
    outer loop
      vertex -17 27 0
      vertex -17 6 4
      vertex -17 27 4
    endloop
  endfacet
  facet normal 0 0 -1
    outer loop
      vertex -6.75 6 0
      vertex 6.75 27 0
      vertex 6.75 6 0
    endloop
  endfacet
  facet normal 0 0 -1
    outer loop
      vertex -6.75 6 0
      vertex -6.75 27 0
      vertex 6.75 27 0
    endloop
  endfacet
  facet normal 0 0 1
    outer loop
      vertex -6.75 6 4
      vertex 6.75 6 4
      vertex 6.75 27 4
    endloop
  endfacet
  facet normal 0 0 1
    outer loop
      vertex -6.75 6 4
      vertex 6.75 27 4
      vertex -6.75 27 4
    endloop
  endfacet
  facet normal 0 -1 0
    outer loop
      vertex -6.75 6 0
      vertex 6.75 6 0
      vertex 6.75 6 4
    endloop
  endfacet
  facet normal 0 -1 0
    outer loop
      vertex -6.75 6 0
      vertex 6.75 6 4
      vertex -6.75 6 4
    endloop
  endfacet
  facet normal 1 0 0
    outer loop
      vertex 6.75 6 0
      vertex 6.75 27 0
      vertex 6.75 27 4
    endloop
  endfacet
  facet normal 1 0 0
    outer loop
      vertex 6.75 6 0
      vertex 6.75 27 4
      vertex 6.75 6 4
    endloop
  endfacet
  facet normal 0 1 0
    outer loop
      vertex 6.75 27 0
      vertex -6.75 27 0
      vertex -6.75 27 4
    endloop
  endfacet
  facet normal 0 1 -0
    outer loop
      vertex 6.75 27 0
      vertex -6.75 27 4
      vertex 6.75 27 4
    endloop
  endfacet
  facet normal -1 0 0
    outer loop
      vertex -6.75 27 0
      vertex -6.75 6 0
      vertex -6.75 6 4
    endloop
  endfacet
  facet normal -1 0 0
    outer loop
      vertex -6.75 27 0
      vertex -6.75 6 4
      vertex -6.75 27 4
    endloop
  endfacet
  facet normal 0 0 -1
    outer loop
      vertex 11.25 6 0
      vertex 17 27 0
      vertex 17 6 0
    endloop
  endfacet
  facet normal 0 0 -1
    outer loop
      vertex 11.25 6 0
      vertex 11.25 27 0
      vertex 17 27 0
    endloop
  endfacet
  facet normal 0 0 1
    outer loop
      vertex 11.25 6 4
      vertex 17 6 4
      vertex 17 27 4
    endloop
  endfacet
  facet normal 0 0 1
    outer loop
      vertex 11.25 6 4
      vertex 17 27 4
      vertex 11.25 27 4
    endloop
  endfacet
  facet normal 0 -1 0
    outer loop
      vertex 11.25 6 0
      vertex 17 6 0
      vertex 17 6 4
    endloop
  endfacet
  facet normal 0 -1 0
    outer loop
      vertex 11.25 6 0
      vertex 17 6 4
      vertex 11.25 6 4
    endloop
  endfacet
  facet normal 1 0 0
    outer loop
      vertex 17 6 0
      vertex 17 27 0
      vertex 17 27 4
    endloop
  endfacet
  facet normal 1 0 0
    outer loop
      vertex 17 6 0
      vertex 17 27 4
      vertex 17 6 4
    endloop
  endfacet
  facet normal 0 1 0
    outer loop
      vertex 17 27 0
      vertex 11.25 27 0
      vertex 11.25 27 4
    endloop
  endfacet
  facet normal 0 1 -0
    outer loop
      vertex 17 27 0
      vertex 11.25 27 4
      vertex 17 27 4
    endloop
  endfacet
  facet normal -1 0 0
    outer loop
      vertex 11.25 27 0
      vertex 11.25 6 0
      vertex 11.25 6 4
    endloop
  endfacet
  facet normal -1 0 0
    outer loop
      vertex 11.25 27 0
      vertex 11.25 6 4
      vertex 11.25 27 4
    endloop
  endfacet
  facet normal 0 0 -1
    outer loop
      vertex -10 30 4
      vertex 10 34 4
      vertex 10 30 4
    endloop
  endfacet
  facet normal 0 0 -1
    outer loop
      vertex -10 30 4
      vertex -10 34 4
      vertex 10 34 4
    endloop
  endfacet
  facet normal 0 0 1
    outer loop
      vertex -10 30 36
      vertex 10 30 36
      vertex 10 34 36
    endloop
  endfacet
  facet normal 0 0 1
    outer loop
      vertex -10 30 36
      vertex 10 34 36
      vertex -10 34 36
    endloop
  endfacet
  facet normal 0 -1 0
    outer loop
      vertex -10 30 4
      vertex 10 30 4
      vertex 10 30 36
    endloop
  endfacet
  facet normal 0 -1 0
    outer loop
      vertex -10 30 4
      vertex 10 30 36
      vertex -10 30 36
    endloop
  endfacet
  facet normal 1 0 0
    outer loop
      vertex 10 30 4
      vertex 10 34 4
      vertex 10 34 36
    endloop
  endfacet
  facet normal 1 0 0
    outer loop
      vertex 10 30 4
      vertex 10 34 36
      vertex 10 30 36
    endloop
  endfacet
  facet normal 0 1 0
    outer loop
      vertex 10 34 4
      vertex -10 34 4
      vertex -10 34 36
    endloop
  endfacet
  facet normal 0 1 0
    outer loop
      vertex 10 34 4
      vertex -10 34 36
      vertex 10 34 36
    endloop
  endfacet
  facet normal -1 0 0
    outer loop
      vertex -10 34 4
      vertex -10 30 4
      vertex -10 30 36
    endloop
  endfacet
  facet normal -1 0 0
    outer loop
      vertex -10 34 4
      vertex -10 30 36
      vertex -10 34 36
    endloop
  endfacet
  facet normal -1 0 0
    outer loop
      vertex -10 20 4
      vertex -10 30 17
      vertex -10 30 4
    endloop
  endfacet
  facet normal 1 0 0
    outer loop
      vertex -7 20 4
      vertex -7 30 4
      vertex -7 30 17
    endloop
  endfacet
  facet normal 0 0 -1
    outer loop
      vertex -10 20 4
      vertex -10 30 4
      vertex -7 30 4
    endloop
  endfacet
  facet normal 0 0 -1
    outer loop
      vertex -10 20 4
      vertex -7 30 4
      vertex -7 20 4
    endloop
  endfacet
  facet normal 0 1 0
    outer loop
      vertex -10 30 4
      vertex -10 30 17
      vertex -7 30 17
    endloop
  endfacet
  facet normal 0 1 0
    outer loop
      vertex -10 30 4
      vertex -7 30 17
      vertex -7 30 4
    endloop
  endfacet
  facet normal 0 -0.792624 0.609711
    outer loop
      vertex -10 30 17
      vertex -10 20 4
      vertex -7 20 4
    endloop
  endfacet
  facet normal 0 -0.792624 0.609711
    outer loop
      vertex -10 30 17
      vertex -7 20 4
      vertex -7 30 17
    endloop
  endfacet
  facet normal -1 0 0
    outer loop
      vertex 7 20 4
      vertex 7 30 17
      vertex 7 30 4
    endloop
  endfacet
  facet normal 1 0 0
    outer loop
      vertex 10 20 4
      vertex 10 30 4
      vertex 10 30 17
    endloop
  endfacet
  facet normal 0 0 -1
    outer loop
      vertex 7 20 4
      vertex 7 30 4
      vertex 10 30 4
    endloop
  endfacet
  facet normal 0 0 -1
    outer loop
      vertex 7 20 4
      vertex 10 30 4
      vertex 10 20 4
    endloop
  endfacet
  facet normal 0 1 0
    outer loop
      vertex 7 30 4
      vertex 7 30 17
      vertex 10 30 17
    endloop
  endfacet
  facet normal 0 1 0
    outer loop
      vertex 7 30 4
      vertex 10 30 17
      vertex 10 30 4
    endloop
  endfacet
  facet normal 0 -0.792624 0.609711
    outer loop
      vertex 7 30 17
      vertex 7 20 4
      vertex 10 20 4
    endloop
  endfacet
  facet normal 0 -0.792624 0.609711
    outer loop
      vertex 7 30 17
      vertex 10 20 4
      vertex 10 30 17
    endloop
  endfacet
endsolid crosswind_limit_flag
