solid crosswind_yl99_holder_pair
  facet normal 0 0 -1
    outer loop
      vertex -40 0 0
      vertex -2 8 0
      vertex -2 0 0
    endloop
  endfacet
  facet normal 0 0 -1
    outer loop
      vertex -40 0 0
      vertex -40 8 0
      vertex -2 8 0
    endloop
  endfacet
  facet normal 0 0 1
    outer loop
      vertex -40 0 4
      vertex -2 0 4
      vertex -2 8 4
    endloop
  endfacet
  facet normal 0 0 1
    outer loop
      vertex -40 0 4
      vertex -2 8 4
      vertex -40 8 4
    endloop
  endfacet
  facet normal 0 -1 0
    outer loop
      vertex -40 0 0
      vertex -2 0 0
      vertex -2 0 4
    endloop
  endfacet
  facet normal 0 -1 0
    outer loop
      vertex -40 0 0
      vertex -2 0 4
      vertex -40 0 4
    endloop
  endfacet
  facet normal 1 0 0
    outer loop
      vertex -2 0 0
      vertex -2 8 0
      vertex -2 8 4
    endloop
  endfacet
  facet normal 1 0 0
    outer loop
      vertex -2 0 0
      vertex -2 8 4
      vertex -2 0 4
    endloop
  endfacet
  facet normal 0 1 0
    outer loop
      vertex -2 8 0
      vertex -40 8 0
      vertex -40 8 4
    endloop
  endfacet
  facet normal 0 1 0
    outer loop
      vertex -2 8 0
      vertex -40 8 4
      vertex -2 8 4
    endloop
  endfacet
  facet normal -1 0 0
    outer loop
      vertex -40 8 0
      vertex -40 0 0
      vertex -40 0 4
    endloop
  endfacet
  facet normal -1 0 0
    outer loop
      vertex -40 8 0
      vertex -40 0 4
      vertex -40 8 4
    endloop
  endfacet
  facet normal 0 0 -1
    outer loop
      vertex -40 28 0
      vertex -2 38 0
      vertex -2 28 0
    endloop
  endfacet
  facet normal 0 0 -1
    outer loop
      vertex -40 28 0
      vertex -40 38 0
      vertex -2 38 0
    endloop
  endfacet
  facet normal 0 0 1
    outer loop
      vertex -40 28 4
      vertex -2 28 4
      vertex -2 38 4
    endloop
  endfacet
  facet normal 0 0 1
    outer loop
      vertex -40 28 4
      vertex -2 38 4
      vertex -40 38 4
    endloop
  endfacet
  facet normal 0 -1 0
    outer loop
      vertex -40 28 0
      vertex -2 28 0
      vertex -2 28 4
    endloop
  endfacet
  facet normal 0 -1 0
    outer loop
      vertex -40 28 0
      vertex -2 28 4
      vertex -40 28 4
    endloop
  endfacet
  facet normal 1 0 0
    outer loop
      vertex -2 28 0
      vertex -2 38 0
      vertex -2 38 4
    endloop
  endfacet
  facet normal 1 0 0
    outer loop
      vertex -2 28 0
      vertex -2 38 4
      vertex -2 28 4
    endloop
  endfacet
  facet normal 0 1 0
    outer loop
      vertex -2 38 0
      vertex -40 38 0
      vertex -40 38 4
    endloop
  endfacet
  facet normal 0 1 0
    outer loop
      vertex -2 38 0
      vertex -40 38 4
      vertex -2 38 4
    endloop
  endfacet
  facet normal -1 0 0
    outer loop
      vertex -40 38 0
      vertex -40 28 0
      vertex -40 28 4
    endloop
  endfacet
  facet normal -1 0 0
    outer loop
      vertex -40 38 0
      vertex -40 28 4
      vertex -40 38 4
    endloop
  endfacet
  facet normal 0 0 -1
    outer loop
      vertex -40 8 0
      vertex -34 28 0
      vertex -34 8 0
    endloop
  endfacet
  facet normal 0 0 -1
    outer loop
      vertex -40 8 0
      vertex -40 28 0
      vertex -34 28 0
    endloop
  endfacet
  facet normal 0 0 1
    outer loop
      vertex -40 8 4
      vertex -34 8 4
      vertex -34 28 4
    endloop
  endfacet
  facet normal 0 0 1
    outer loop
      vertex -40 8 4
      vertex -34 28 4
      vertex -40 28 4
    endloop
  endfacet
  facet normal 0 -1 0
    outer loop
      vertex -40 8 0
      vertex -34 8 0
      vertex -34 8 4
    endloop
  endfacet
  facet normal 0 -1 0
    outer loop
      vertex -40 8 0
      vertex -34 8 4
      vertex -40 8 4
    endloop
  endfacet
  facet normal 1 0 0
    outer loop
      vertex -34 8 0
      vertex -34 28 0
      vertex -34 28 4
    endloop
  endfacet
  facet normal 1 0 0
    outer loop
      vertex -34 8 0
      vertex -34 28 4
      vertex -34 8 4
    endloop
  endfacet
  facet normal 0 1 0
    outer loop
      vertex -34 28 0
      vertex -40 28 0
      vertex -40 28 4
    endloop
  endfacet
  facet normal 0 1 0
    outer loop
      vertex -34 28 0
      vertex -40 28 4
      vertex -34 28 4
    endloop
  endfacet
  facet normal -1 0 0
    outer loop
      vertex -40 28 0
      vertex -40 8 0
      vertex -40 8 4
    endloop
  endfacet
  facet normal -1 0 0
    outer loop
      vertex -40 28 0
      vertex -40 8 4
      vertex -40 28 4
    endloop
  endfacet
  facet normal 0 0 -1
    outer loop
      vertex -29.5 8 0
      vertex -12.5 28 0
      vertex -12.5 8 0
    endloop
  endfacet
  facet normal 0 0 -1
    outer loop
      vertex -29.5 8 0
      vertex -29.5 28 0
      vertex -12.5 28 0
    endloop
  endfacet
  facet normal 0 0 1
    outer loop
      vertex -29.5 8 4
      vertex -12.5 8 4
      vertex -12.5 28 4
    endloop
  endfacet
  facet normal 0 0 1
    outer loop
      vertex -29.5 8 4
      vertex -12.5 28 4
      vertex -29.5 28 4
    endloop
  endfacet
  facet normal 0 -1 0
    outer loop
      vertex -29.5 8 0
      vertex -12.5 8 0
      vertex -12.5 8 4
    endloop
  endfacet
  facet normal 0 -1 0
    outer loop
      vertex -29.5 8 0
      vertex -12.5 8 4
      vertex -29.5 8 4
    endloop
  endfacet
  facet normal 1 0 0
    outer loop
      vertex -12.5 8 0
      vertex -12.5 28 0
      vertex -12.5 28 4
    endloop
  endfacet
  facet normal 1 0 0
    outer loop
      vertex -12.5 8 0
      vertex -12.5 28 4
      vertex -12.5 8 4
    endloop
  endfacet
  facet normal 0 1 0
    outer loop
      vertex -12.5 28 0
      vertex -29.5 28 0
      vertex -29.5 28 4
    endloop
  endfacet
  facet normal 0 1 -0
    outer loop
      vertex -12.5 28 0
      vertex -29.5 28 4
      vertex -12.5 28 4
    endloop
  endfacet
  facet normal -1 0 0
    outer loop
      vertex -29.5 28 0
      vertex -29.5 8 0
      vertex -29.5 8 4
    endloop
  endfacet
  facet normal -1 0 0
    outer loop
      vertex -29.5 28 0
      vertex -29.5 8 4
      vertex -29.5 28 4
    endloop
  endfacet
  facet normal 0 0 -1
    outer loop
      vertex -8 8 0
      vertex -2 28 0
      vertex -2 8 0
    endloop
  endfacet
  facet normal 0 0 -1
    outer loop
      vertex -8 8 0
      vertex -8 28 0
      vertex -2 28 0
    endloop
  endfacet
  facet normal 0 0 1
    outer loop
      vertex -8 8 4
      vertex -2 8 4
      vertex -2 28 4
    endloop
  endfacet
  facet normal 0 0 1
    outer loop
      vertex -8 8 4
      vertex -2 28 4
      vertex -8 28 4
    endloop
  endfacet
  facet normal 0 -1 0
    outer loop
      vertex -8 8 0
      vertex -2 8 0
      vertex -2 8 4
    endloop
  endfacet
  facet normal 0 -1 0
    outer loop
      vertex -8 8 0
      vertex -2 8 4
      vertex -8 8 4
    endloop
  endfacet
  facet normal 1 0 0
    outer loop
      vertex -2 8 0
      vertex -2 28 0
      vertex -2 28 4
    endloop
  endfacet
  facet normal 1 0 0
    outer loop
      vertex -2 8 0
      vertex -2 28 4
      vertex -2 8 4
    endloop
  endfacet
  facet normal 0 1 0
    outer loop
      vertex -2 28 0
      vertex -8 28 0
      vertex -8 28 4
    endloop
  endfacet
  facet normal 0 1 0
    outer loop
      vertex -2 28 0
      vertex -8 28 4
      vertex -2 28 4
    endloop
  endfacet
  facet normal -1 0 0
    outer loop
      vertex -8 28 0
      vertex -8 8 0
      vertex -8 8 4
    endloop
  endfacet
  facet normal -1 0 0
    outer loop
      vertex -8 28 0
      vertex -8 8 4
      vertex -8 28 4
    endloop
  endfacet
  facet normal 0 0 -1
    outer loop
      vertex -34 34 4
      vertex -22.8 38 4
      vertex -22.8 34 4
    endloop
  endfacet
  facet normal 0 0 -1
    outer loop
      vertex -34 34 4
      vertex -34 38 4
      vertex -22.8 38 4
    endloop
  endfacet
  facet normal 0 0 1
    outer loop
      vertex -34 34 42
      vertex -22.8 34 42
      vertex -22.8 38 42
    endloop
  endfacet
  facet normal 0 0 1
    outer loop
      vertex -34 34 42
      vertex -22.8 38 42
      vertex -34 38 42
    endloop
  endfacet
  facet normal 0 -1 0
    outer loop
      vertex -34 34 4
      vertex -22.8 34 4
      vertex -22.8 34 42
    endloop
  endfacet
  facet normal 0 -1 0
    outer loop
      vertex -34 34 4
      vertex -22.8 34 42
      vertex -34 34 42
    endloop
  endfacet
  facet normal 1 0 0
    outer loop
      vertex -22.8 34 4
      vertex -22.8 38 4
      vertex -22.8 38 42
    endloop
  endfacet
  facet normal 1 0 0
    outer loop
      vertex -22.8 34 4
      vertex -22.8 38 42
      vertex -22.8 34 42
    endloop
  endfacet
  facet normal 0 1 0
    outer loop
      vertex -22.8 38 4
      vertex -34 38 4
      vertex -34 38 42
    endloop
  endfacet
  facet normal 0 1 -0
    outer loop
      vertex -22.8 38 4
      vertex -34 38 42
      vertex -22.8 38 42
    endloop
  endfacet
  facet normal -1 0 0
    outer loop
      vertex -34 38 4
      vertex -34 34 4
      vertex -34 34 42
    endloop
  endfacet
  facet normal -1 0 0
    outer loop
      vertex -34 38 4
      vertex -34 34 42
      vertex -34 38 42
    endloop
  endfacet
  facet normal 0 0 -1
    outer loop
      vertex -19.2 34 4
      vertex -8 38 4
      vertex -8 34 4
    endloop
  endfacet
  facet normal 0 0 -1
    outer loop
      vertex -19.2 34 4
      vertex -19.2 38 4
      vertex -8 38 4
    endloop
  endfacet
  facet normal 0 0 1
    outer loop
      vertex -19.2 34 42
      vertex -8 34 42
      vertex -8 38 42
    endloop
  endfacet
  facet normal 0 0 1
    outer loop
      vertex -19.2 34 42
      vertex -8 38 42
      vertex -19.2 38 42
    endloop
  endfacet
  facet normal 0 -1 0
    outer loop
      vertex -19.2 34 4
      vertex -8 34 4
      vertex -8 34 42
    endloop
  endfacet
  facet normal 0 -1 0
    outer loop
      vertex -19.2 34 4
      vertex -8 34 42
      vertex -19.2 34 42
    endloop
  endfacet
  facet normal 1 0 0
    outer loop
      vertex -8 34 4
      vertex -8 38 4
      vertex -8 38 42
    endloop
  endfacet
  facet normal 1 0 0
    outer loop
      vertex -8 34 4
      vertex -8 38 42
      vertex -8 34 42
    endloop
  endfacet
  facet normal 0 1 0
    outer loop
      vertex -8 38 4
      vertex -19.2 38 4
      vertex -19.2 38 42
    endloop
  endfacet
  facet normal 0 1 -0
    outer loop
      vertex -8 38 4
      vertex -19.2 38 42
      vertex -8 38 42
    endloop
  endfacet
  facet normal -1 0 0
    outer loop
      vertex -19.2 38 4
      vertex -19.2 34 4
      vertex -19.2 34 42
    endloop
  endfacet
  facet normal -1 0 0
    outer loop
      vertex -19.2 38 4
      vertex -19.2 34 42
      vertex -19.2 38 42
    endloop
  endfacet
  facet normal 0 0 -1
    outer loop
      vertex -22.8 34 4
      vertex -19.2 38 4
      vertex -19.2 34 4
    endloop
  endfacet
  facet normal 0 0 -1
    outer loop
      vertex -22.8 34 4
      vertex -22.8 38 4
      vertex -19.2 38 4
    endloop
  endfacet
  facet normal 0 0 1
    outer loop
      vertex -22.8 34 9
      vertex -19.2 34 9
      vertex -19.2 38 9
    endloop
  endfacet
  facet normal 0 0 1
    outer loop
      vertex -22.8 34 9
      vertex -19.2 38 9
      vertex -22.8 38 9
    endloop
  endfacet
  facet normal 0 -1 0
    outer loop
      vertex -22.8 34 4
      vertex -19.2 34 4
      vertex -19.2 34 9
    endloop
  endfacet
  facet normal 0 -1 0
    outer loop
      vertex -22.8 34 4
      vertex -19.2 34 9
      vertex -22.8 34 9
    endloop
  endfacet
  facet normal 1 0 0
    outer loop
      vertex -19.2 34 4
      vertex -19.2 38 4
      vertex -19.2 38 9
    endloop
  endfacet
  facet normal 1 0 0
    outer loop
      vertex -19.2 34 4
      vertex -19.2 38 9
      vertex -19.2 34 9
    endloop
  endfacet
  facet normal 0 1 0
    outer loop
      vertex -19.2 38 4
      vertex -22.8 38 4
      vertex -22.8 38 9
    endloop
  endfacet
  facet normal 0 1 -0
    outer loop
      vertex -19.2 38 4
      vertex -22.8 38 9
      vertex -19.2 38 9
    endloop
  endfacet
  facet normal -1 0 0
    outer loop
      vertex -22.8 38 4
      vertex -22.8 34 4
      vertex -22.8 34 9
    endloop
  endfacet
  facet normal -1 0 0
    outer loop
      vertex -22.8 38 4
      vertex -22.8 34 9
      vertex -22.8 38 9
    endloop
  endfacet
  facet normal 0 0 -1
    outer loop
      vertex -22.8 34 25
      vertex -19.2 38 25
      vertex -19.2 34 25
    endloop
  endfacet
  facet normal 0 0 -1
    outer loop
      vertex -22.8 34 25
      vertex -22.8 38 25
      vertex -19.2 38 25
    endloop
  endfacet
  facet normal 0 0 1
    outer loop
      vertex -22.8 34 42
      vertex -19.2 34 42
      vertex -19.2 38 42
    endloop
  endfacet
  facet normal 0 0 1
    outer loop
      vertex -22.8 34 42
      vertex -19.2 38 42
      vertex -22.8 38 42
    endloop
  endfacet
  facet normal 0 -1 0
    outer loop
      vertex -22.8 34 25
      vertex -19.2 34 25
      vertex -19.2 34 42
    endloop
  endfacet
  facet normal 0 -1 0
    outer loop
      vertex -22.8 34 25
      vertex -19.2 34 42
      vertex -22.8 34 42
    endloop
  endfacet
  facet normal 1 0 0
    outer loop
      vertex -19.2 34 25
      vertex -19.2 38 25
      vertex -19.2 38 42
    endloop
  endfacet
  facet normal 1 0 0
    outer loop
      vertex -19.2 34 25
      vertex -19.2 38 42
      vertex -19.2 34 42
    endloop
  endfacet
  facet normal 0 1 0
    outer loop
      vertex -19.2 38 25
      vertex -22.8 38 25
      vertex -22.8 38 42
    endloop
  endfacet
  facet normal 0 1 -0
    outer loop
      vertex -19.2 38 25
      vertex -22.8 38 42
      vertex -19.2 38 42
    endloop
  endfacet
  facet normal -1 0 0
    outer loop
      vertex -22.8 38 25
      vertex -22.8 34 25
      vertex -22.8 34 42
    endloop
  endfacet
  facet normal -1 0 0
    outer loop
      vertex -22.8 38 25
      vertex -22.8 34 42
      vertex -22.8 38 42
    endloop
  endfacet
  facet normal -1 0 0
    outer loop
      vertex -33 23 4
      vertex -33 34 19
      vertex -33 34 4
    endloop
  endfacet
  facet normal 1 0 0
    outer loop
      vertex -30 23 4
      vertex -30 34 4
      vertex -30 34 19
    endloop
  endfacet
  facet normal 0 0 -1
    outer loop
      vertex -33 23 4
      vertex -33 34 4
      vertex -30 34 4
    endloop
  endfacet
  facet normal 0 0 -1
    outer loop
      vertex -33 23 4
      vertex -30 34 4
      vertex -30 23 4
    endloop
  endfacet
  facet normal 0 1 0
    outer loop
      vertex -33 34 4
      vertex -33 34 19
      vertex -30 34 19
    endloop
  endfacet
  facet normal 0 1 0
    outer loop
      vertex -33 34 4
      vertex -30 34 19
      vertex -30 34 4
    endloop
  endfacet
  facet normal 0 -0.806405 0.591364
    outer loop
      vertex -33 34 19
      vertex -33 23 4
      vertex -30 23 4
    endloop
  endfacet
  facet normal 0 -0.806405 0.591364
    outer loop
      vertex -33 34 19
      vertex -30 23 4
      vertex -30 34 19
    endloop
  endfacet
  facet normal -1 0 0
    outer loop
      vertex -12 23 4
      vertex -12 34 19
      vertex -12 34 4
    endloop
  endfacet
  facet normal 1 0 0
    outer loop
      vertex -9 23 4
      vertex -9 34 4
      vertex -9 34 19
    endloop
  endfacet
  facet normal 0 0 -1
    outer loop
      vertex -12 23 4
      vertex -12 34 4
      vertex -9 34 4
    endloop
  endfacet
  facet normal 0 0 -1
    outer loop
      vertex -12 23 4
      vertex -9 34 4
      vertex -9 23 4
    endloop
  endfacet
  facet normal 0 1 0
    outer loop
      vertex -12 34 4
      vertex -12 34 19
      vertex -9 34 19
    endloop
  endfacet
  facet normal 0 1 0
    outer loop
      vertex -12 34 4
      vertex -9 34 19
      vertex -9 34 4
    endloop
  endfacet
  facet normal 0 -0.806405 0.591364
    outer loop
      vertex -12 34 19
      vertex -12 23 4
      vertex -9 23 4
    endloop
  endfacet
  facet normal 0 -0.806405 0.591364
    outer loop
      vertex -12 34 19
      vertex -9 23 4
      vertex -9 34 19
    endloop
  endfacet
  facet normal 0 0 -1
    outer loop
      vertex 2 0 0
      vertex 40 8 0
      vertex 40 0 0
    endloop
  endfacet
  facet normal 0 0 -1
    outer loop
      vertex 2 0 0
      vertex 2 8 0
      vertex 40 8 0
    endloop
  endfacet
  facet normal 0 0 1
    outer loop
      vertex 2 0 4
      vertex 40 0 4
      vertex 40 8 4
    endloop
  endfacet
  facet normal 0 0 1
    outer loop
      vertex 2 0 4
      vertex 40 8 4
      vertex 2 8 4
    endloop
  endfacet
  facet normal 0 -1 0
    outer loop
      vertex 2 0 0
      vertex 40 0 0
      vertex 40 0 4
    endloop
  endfacet
  facet normal 0 -1 0
    outer loop
      vertex 2 0 0
      vertex 40 0 4
      vertex 2 0 4
    endloop
  endfacet
  facet normal 1 0 0
    outer loop
      vertex 40 0 0
      vertex 40 8 0
      vertex 40 8 4
    endloop
  endfacet
  facet normal 1 0 0
    outer loop
      vertex 40 0 0
      vertex 40 8 4
      vertex 40 0 4
    endloop
  endfacet
  facet normal 0 1 0
    outer loop
      vertex 40 8 0
      vertex 2 8 0
      vertex 2 8 4
    endloop
  endfacet
  facet normal 0 1 0
    outer loop
      vertex 40 8 0
      vertex 2 8 4
      vertex 40 8 4
    endloop
  endfacet
  facet normal -1 0 0
    outer loop
      vertex 2 8 0
      vertex 2 0 0
      vertex 2 0 4
    endloop
  endfacet
  facet normal -1 0 0
    outer loop
      vertex 2 8 0
      vertex 2 0 4
      vertex 2 8 4
    endloop
  endfacet
  facet normal 0 0 -1
    outer loop
      vertex 2 28 0
      vertex 40 38 0
      vertex 40 28 0
    endloop
  endfacet
  facet normal 0 0 -1
    outer loop
      vertex 2 28 0
      vertex 2 38 0
      vertex 40 38 0
    endloop
  endfacet
  facet normal 0 0 1
    outer loop
      vertex 2 28 4
      vertex 40 28 4
      vertex 40 38 4
    endloop
  endfacet
  facet normal 0 0 1
    outer loop
      vertex 2 28 4
      vertex 40 38 4
      vertex 2 38 4
    endloop
  endfacet
  facet normal 0 -1 0
    outer loop
      vertex 2 28 0
      vertex 40 28 0
      vertex 40 28 4
    endloop
  endfacet
  facet normal 0 -1 0
    outer loop
      vertex 2 28 0
      vertex 40 28 4
      vertex 2 28 4
    endloop
  endfacet
  facet normal 1 0 0
    outer loop
      vertex 40 28 0
      vertex 40 38 0
      vertex 40 38 4
    endloop
  endfacet
  facet normal 1 0 0
    outer loop
      vertex 40 28 0
      vertex 40 38 4
      vertex 40 28 4
    endloop
  endfacet
  facet normal 0 1 0
    outer loop
      vertex 40 38 0
      vertex 2 38 0
      vertex 2 38 4
    endloop
  endfacet
  facet normal 0 1 0
    outer loop
      vertex 40 38 0
      vertex 2 38 4
      vertex 40 38 4
    endloop
  endfacet
  facet normal -1 0 0
    outer loop
      vertex 2 38 0
      vertex 2 28 0
      vertex 2 28 4
    endloop
  endfacet
  facet normal -1 0 0
    outer loop
      vertex 2 38 0
      vertex 2 28 4
      vertex 2 38 4
    endloop
  endfacet
  facet normal 0 0 -1
    outer loop
      vertex 2 8 0
      vertex 8 28 0
      vertex 8 8 0
    endloop
  endfacet
  facet normal 0 0 -1
    outer loop
      vertex 2 8 0
      vertex 2 28 0
      vertex 8 28 0
    endloop
  endfacet
  facet normal 0 0 1
    outer loop
      vertex 2 8 4
      vertex 8 8 4
      vertex 8 28 4
    endloop
  endfacet
  facet normal 0 0 1
    outer loop
      vertex 2 8 4
      vertex 8 28 4
      vertex 2 28 4
    endloop
  endfacet
  facet normal 0 -1 0
    outer loop
      vertex 2 8 0
      vertex 8 8 0
      vertex 8 8 4
    endloop
  endfacet
  facet normal 0 -1 0
    outer loop
      vertex 2 8 0
      vertex 8 8 4
      vertex 2 8 4
    endloop
  endfacet
  facet normal 1 0 0
    outer loop
      vertex 8 8 0
      vertex 8 28 0
      vertex 8 28 4
    endloop
  endfacet
  facet normal 1 0 0
    outer loop
      vertex 8 8 0
      vertex 8 28 4
      vertex 8 8 4
    endloop
  endfacet
  facet normal 0 1 0
    outer loop
      vertex 8 28 0
      vertex 2 28 0
      vertex 2 28 4
    endloop
  endfacet
  facet normal 0 1 0
    outer loop
      vertex 8 28 0
      vertex 2 28 4
      vertex 8 28 4
    endloop
  endfacet
  facet normal -1 0 0
    outer loop
      vertex 2 28 0
      vertex 2 8 0
      vertex 2 8 4
    endloop
  endfacet
  facet normal -1 0 0
    outer loop
      vertex 2 28 0
      vertex 2 8 4
      vertex 2 28 4
    endloop
  endfacet
  facet normal 0 0 -1
    outer loop
      vertex 12.5 8 0
      vertex 29.5 28 0
      vertex 29.5 8 0
    endloop
  endfacet
  facet normal 0 0 -1
    outer loop
      vertex 12.5 8 0
      vertex 12.5 28 0
      vertex 29.5 28 0
    endloop
  endfacet
  facet normal 0 0 1
    outer loop
      vertex 12.5 8 4
      vertex 29.5 8 4
      vertex 29.5 28 4
    endloop
  endfacet
  facet normal 0 0 1
    outer loop
      vertex 12.5 8 4
      vertex 29.5 28 4
      vertex 12.5 28 4
    endloop
  endfacet
  facet normal 0 -1 0
    outer loop
      vertex 12.5 8 0
      vertex 29.5 8 0
      vertex 29.5 8 4
    endloop
  endfacet
  facet normal 0 -1 0
    outer loop
      vertex 12.5 8 0
      vertex 29.5 8 4
      vertex 12.5 8 4
    endloop
  endfacet
  facet normal 1 0 0
    outer loop
      vertex 29.5 8 0
      vertex 29.5 28 0
      vertex 29.5 28 4
    endloop
  endfacet
  facet normal 1 0 0
    outer loop
      vertex 29.5 8 0
      vertex 29.5 28 4
      vertex 29.5 8 4
    endloop
  endfacet
  facet normal 0 1 0
    outer loop
      vertex 29.5 28 0
      vertex 12.5 28 0
      vertex 12.5 28 4
    endloop
  endfacet
  facet normal 0 1 -0
    outer loop
      vertex 29.5 28 0
      vertex 12.5 28 4
      vertex 29.5 28 4
    endloop
  endfacet
  facet normal -1 0 0
    outer loop
      vertex 12.5 28 0
      vertex 12.5 8 0
      vertex 12.5 8 4
    endloop
  endfacet
  facet normal -1 0 0
    outer loop
      vertex 12.5 28 0
      vertex 12.5 8 4
      vertex 12.5 28 4
    endloop
  endfacet
  facet normal 0 0 -1
    outer loop
      vertex 34 8 0
      vertex 40 28 0
      vertex 40 8 0
    endloop
  endfacet
  facet normal 0 0 -1
    outer loop
      vertex 34 8 0
      vertex 34 28 0
      vertex 40 28 0
    endloop
  endfacet
  facet normal 0 0 1
    outer loop
      vertex 34 8 4
      vertex 40 8 4
      vertex 40 28 4
    endloop
  endfacet
  facet normal 0 0 1
    outer loop
      vertex 34 8 4
      vertex 40 28 4
      vertex 34 28 4
    endloop
  endfacet
  facet normal 0 -1 0
    outer loop
      vertex 34 8 0
      vertex 40 8 0
      vertex 40 8 4
    endloop
  endfacet
  facet normal 0 -1 0
    outer loop
      vertex 34 8 0
      vertex 40 8 4
      vertex 34 8 4
    endloop
  endfacet
  facet normal 1 0 0
    outer loop
      vertex 40 8 0
      vertex 40 28 0
      vertex 40 28 4
    endloop
  endfacet
  facet normal 1 0 0
    outer loop
      vertex 40 8 0
      vertex 40 28 4
      vertex 40 8 4
    endloop
  endfacet
  facet normal 0 1 0
    outer loop
      vertex 40 28 0
      vertex 34 28 0
      vertex 34 28 4
    endloop
  endfacet
  facet normal 0 1 0
    outer loop
      vertex 40 28 0
      vertex 34 28 4
      vertex 40 28 4
    endloop
  endfacet
  facet normal -1 0 0
    outer loop
      vertex 34 28 0
      vertex 34 8 0
      vertex 34 8 4
    endloop
  endfacet
  facet normal -1 0 0
    outer loop
      vertex 34 28 0
      vertex 34 8 4
      vertex 34 28 4
    endloop
  endfacet
  facet normal 0 0 -1
    outer loop
      vertex 8 34 4
      vertex 19.2 38 4
      vertex 19.2 34 4
    endloop
  endfacet
  facet normal 0 0 -1
    outer loop
      vertex 8 34 4
      vertex 8 38 4
      vertex 19.2 38 4
    endloop
  endfacet
  facet normal 0 0 1
    outer loop
      vertex 8 34 42
      vertex 19.2 34 42
      vertex 19.2 38 42
    endloop
  endfacet
  facet normal 0 0 1
    outer loop
      vertex 8 34 42
      vertex 19.2 38 42
      vertex 8 38 42
    endloop
  endfacet
  facet normal 0 -1 0
    outer loop
      vertex 8 34 4
      vertex 19.2 34 4
      vertex 19.2 34 42
    endloop
  endfacet
  facet normal 0 -1 0
    outer loop
      vertex 8 34 4
      vertex 19.2 34 42
      vertex 8 34 42
    endloop
  endfacet
  facet normal 1 0 0
    outer loop
      vertex 19.2 34 4
      vertex 19.2 38 4
      vertex 19.2 38 42
    endloop
  endfacet
  facet normal 1 0 0
    outer loop
      vertex 19.2 34 4
      vertex 19.2 38 42
      vertex 19.2 34 42
    endloop
  endfacet
  facet normal 0 1 0
    outer loop
      vertex 19.2 38 4
      vertex 8 38 4
      vertex 8 38 42
    endloop
  endfacet
  facet normal 0 1 -0
    outer loop
      vertex 19.2 38 4
      vertex 8 38 42
      vertex 19.2 38 42
    endloop
  endfacet
  facet normal -1 0 0
    outer loop
      vertex 8 38 4
      vertex 8 34 4
      vertex 8 34 42
    endloop
  endfacet
  facet normal -1 0 0
    outer loop
      vertex 8 38 4
      vertex 8 34 42
      vertex 8 38 42
    endloop
  endfacet
  facet normal 0 0 -1
    outer loop
      vertex 22.8 34 4
      vertex 34 38 4
      vertex 34 34 4
    endloop
  endfacet
  facet normal 0 0 -1
    outer loop
      vertex 22.8 34 4
      vertex 22.8 38 4
      vertex 34 38 4
    endloop
  endfacet
  facet normal 0 0 1
    outer loop
      vertex 22.8 34 42
      vertex 34 34 42
      vertex 34 38 42
    endloop
  endfacet
  facet normal 0 0 1
    outer loop
      vertex 22.8 34 42
      vertex 34 38 42
      vertex 22.8 38 42
    endloop
  endfacet
  facet normal 0 -1 0
    outer loop
      vertex 22.8 34 4
      vertex 34 34 4
      vertex 34 34 42
    endloop
  endfacet
  facet normal 0 -1 0
    outer loop
      vertex 22.8 34 4
      vertex 34 34 42
      vertex 22.8 34 42
    endloop
  endfacet
  facet normal 1 0 0
    outer loop
      vertex 34 34 4
      vertex 34 38 4
      vertex 34 38 42
    endloop
  endfacet
  facet normal 1 0 0
    outer loop
      vertex 34 34 4
      vertex 34 38 42
      vertex 34 34 42
    endloop
  endfacet
  facet normal 0 1 0
    outer loop
      vertex 34 38 4
      vertex 22.8 38 4
      vertex 22.8 38 42
    endloop
  endfacet
  facet normal 0 1 -0
    outer loop
      vertex 34 38 4
      vertex 22.8 38 42
      vertex 34 38 42
    endloop
  endfacet
  facet normal -1 0 0
    outer loop
      vertex 22.8 38 4
      vertex 22.8 34 4
      vertex 22.8 34 42
    endloop
  endfacet
  facet normal -1 0 0
    outer loop
      vertex 22.8 38 4
      vertex 22.8 34 42
      vertex 22.8 38 42
    endloop
  endfacet
  facet normal 0 0 -1
    outer loop
      vertex 19.2 34 4
      vertex 22.8 38 4
      vertex 22.8 34 4
    endloop
  endfacet
  facet normal 0 0 -1
    outer loop
      vertex 19.2 34 4
      vertex 19.2 38 4
      vertex 22.8 38 4
    endloop
  endfacet
  facet normal 0 0 1
    outer loop
      vertex 19.2 34 9
      vertex 22.8 34 9
      vertex 22.8 38 9
    endloop
  endfacet
  facet normal 0 0 1
    outer loop
      vertex 19.2 34 9
      vertex 22.8 38 9
      vertex 19.2 38 9
    endloop
  endfacet
  facet normal 0 -1 0
    outer loop
      vertex 19.2 34 4
      vertex 22.8 34 4
      vertex 22.8 34 9
    endloop
  endfacet
  facet normal 0 -1 0
    outer loop
      vertex 19.2 34 4
      vertex 22.8 34 9
      vertex 19.2 34 9
    endloop
  endfacet
  facet normal 1 0 0
    outer loop
      vertex 22.8 34 4
      vertex 22.8 38 4
      vertex 22.8 38 9
    endloop
  endfacet
  facet normal 1 0 0
    outer loop
      vertex 22.8 34 4
      vertex 22.8 38 9
      vertex 22.8 34 9
    endloop
  endfacet
  facet normal 0 1 0
    outer loop
      vertex 22.8 38 4
      vertex 19.2 38 4
      vertex 19.2 38 9
    endloop
  endfacet
  facet normal 0 1 -0
    outer loop
      vertex 22.8 38 4
      vertex 19.2 38 9
      vertex 22.8 38 9
    endloop
  endfacet
  facet normal -1 0 0
    outer loop
      vertex 19.2 38 4
      vertex 19.2 34 4
      vertex 19.2 34 9
    endloop
  endfacet
  facet normal -1 0 0
    outer loop
      vertex 19.2 38 4
      vertex 19.2 34 9
      vertex 19.2 38 9
    endloop
  endfacet
  facet normal 0 0 -1
    outer loop
      vertex 19.2 34 25
      vertex 22.8 38 25
      vertex 22.8 34 25
    endloop
  endfacet
  facet normal 0 0 -1
    outer loop
      vertex 19.2 34 25
      vertex 19.2 38 25
      vertex 22.8 38 25
    endloop
  endfacet
  facet normal 0 0 1
    outer loop
      vertex 19.2 34 42
      vertex 22.8 34 42
      vertex 22.8 38 42
    endloop
  endfacet
  facet normal 0 0 1
    outer loop
      vertex 19.2 34 42
      vertex 22.8 38 42
      vertex 19.2 38 42
    endloop
  endfacet
  facet normal 0 -1 0
    outer loop
      vertex 19.2 34 25
      vertex 22.8 34 25
      vertex 22.8 34 42
    endloop
  endfacet
  facet normal 0 -1 0
    outer loop
      vertex 19.2 34 25
      vertex 22.8 34 42
      vertex 19.2 34 42
    endloop
  endfacet
  facet normal 1 0 0
    outer loop
      vertex 22.8 34 25
      vertex 22.8 38 25
      vertex 22.8 38 42
    endloop
  endfacet
  facet normal 1 0 0
    outer loop
      vertex 22.8 34 25
      vertex 22.8 38 42
      vertex 22.8 34 42
    endloop
  endfacet
  facet normal 0 1 0
    outer loop
      vertex 22.8 38 25
      vertex 19.2 38 25
      vertex 19.2 38 42
    endloop
  endfacet
  facet normal 0 1 -0
    outer loop
      vertex 22.8 38 25
      vertex 19.2 38 42
      vertex 22.8 38 42
    endloop
  endfacet
  facet normal -1 0 0
    outer loop
      vertex 19.2 38 25
      vertex 19.2 34 25
      vertex 19.2 34 42
    endloop
  endfacet
  facet normal -1 0 0
    outer loop
      vertex 19.2 38 25
      vertex 19.2 34 42
      vertex 19.2 38 42
    endloop
  endfacet
  facet normal -1 0 0
    outer loop
      vertex 9 23 4
      vertex 9 34 19
      vertex 9 34 4
    endloop
  endfacet
  facet normal 1 0 0
    outer loop
      vertex 12 23 4
      vertex 12 34 4
      vertex 12 34 19
    endloop
  endfacet
  facet normal 0 0 -1
    outer loop
      vertex 9 23 4
      vertex 9 34 4
      vertex 12 34 4
    endloop
  endfacet
  facet normal 0 0 -1
    outer loop
      vertex 9 23 4
      vertex 12 34 4
      vertex 12 23 4
    endloop
  endfacet
  facet normal 0 1 0
    outer loop
      vertex 9 34 4
      vertex 9 34 19
      vertex 12 34 19
    endloop
  endfacet
  facet normal 0 1 0
    outer loop
      vertex 9 34 4
      vertex 12 34 19
      vertex 12 34 4
    endloop
  endfacet
  facet normal 0 -0.806405 0.591364
    outer loop
      vertex 9 34 19
      vertex 9 23 4
      vertex 12 23 4
    endloop
  endfacet
  facet normal 0 -0.806405 0.591364
    outer loop
      vertex 9 34 19
      vertex 12 23 4
      vertex 12 34 19
    endloop
  endfacet
  facet normal -1 0 0
    outer loop
      vertex 30 23 4
      vertex 30 34 19
      vertex 30 34 4
    endloop
  endfacet
  facet normal 1 0 0
    outer loop
      vertex 33 23 4
      vertex 33 34 4
      vertex 33 34 19
    endloop
  endfacet
  facet normal 0 0 -1
    outer loop
      vertex 30 23 4
      vertex 30 34 4
      vertex 33 34 4
    endloop
  endfacet
  facet normal 0 0 -1
    outer loop
      vertex 30 23 4
      vertex 33 34 4
      vertex 33 23 4
    endloop
  endfacet
  facet normal 0 1 0
    outer loop
      vertex 30 34 4
      vertex 30 34 19
      vertex 33 34 19
    endloop
  endfacet
  facet normal 0 1 0
    outer loop
      vertex 30 34 4
      vertex 33 34 19
      vertex 33 34 4
    endloop
  endfacet
  facet normal 0 -0.806405 0.591364
    outer loop
      vertex 30 34 19
      vertex 30 23 4
      vertex 33 23 4
    endloop
  endfacet
  facet normal 0 -0.806405 0.591364
    outer loop
      vertex 30 34 19
      vertex 33 23 4
      vertex 33 34 19
    endloop
  endfacet
endsolid crosswind_yl99_holder_pair
